<svg width="40" height="40" viewBox="0 0 40 40" fill="none" xmlns="http://www.w3.org/2000/svg">
<path fill-rule="evenodd" clip-rule="evenodd" d="M20 0.95238C20 0.426395 20.407 0 20.9091 0C31.4527 0 40 8.95433 40 20C40 31.0457 31.4527 40 20.9091 40C20.407 40 20 39.5736 20 39.0476C20 38.5217 20.407 38.0953 20.9091 38.0953C30.4485 38.0953 38.1818 29.9937 38.1818 20C38.1818 10.0063 30.4485 1.90476 20.9091 1.90476C20.407 1.90476 20 1.47837 20 0.95238Z" fill="#082C4E"/>
<path d="M25.2699 19.6618C25.2297 19.5528 25.1694 19.4532 25.0925 19.3688L20.8686 14.928C20.6544 14.7027 20.342 14.6147 20.0493 14.6972C19.7566 14.7796 19.528 15.02 19.4495 15.3278C19.3711 15.6355 19.4548 15.9639 19.669 16.1892L22.4568 19.1112H15.5114C15.0448 19.1112 14.6666 19.5088 14.6666 19.9994C14.6666 20.4899 15.0448 20.8875 15.5114 20.8875H22.4568L19.669 23.8096C19.5091 23.9763 19.4192 24.2033 19.4192 24.4401C19.4192 24.677 19.5091 24.904 19.669 25.0707C19.8277 25.2388 20.0436 25.3334 20.2688 25.3334C20.4941 25.3334 20.71 25.2388 20.8686 25.0707L25.0925 20.63C25.1694 20.5455 25.2297 20.4459 25.2699 20.3368C25.3544 20.1206 25.3544 19.8781 25.2699 19.6618Z" fill="#082C4E"/>
</svg>
