<svg width="40" height="40" viewBox="0 0 40 40" fill="none" xmlns="http://www.w3.org/2000/svg">
<g clip-path="url(#clip0)">
<path fill-rule="evenodd" clip-rule="evenodd" d="M20 39.0476C20 39.5736 19.593 40 19.0909 40C8.54727 40 7.82813e-07 31.0457 1.74846e-06 20C2.7141e-06 8.95433 8.54727 -1.00123e-06 19.0909 -7.94731e-08C19.593 -3.55811e-08 20 0.426399 20 0.9524C20 1.47833 19.593 1.90473 19.0909 1.90473C9.55147 1.90473 1.8182 10.0063 1.8182 20C1.8182 29.9937 9.55147 38.0952 19.0909 38.0952C19.593 38.0952 20 38.5216 20 39.0476Z" fill="#082C4E"/>
<path d="M14.7301 20.3382C14.7703 20.4472 14.8306 20.5468 14.9075 20.6312L19.1314 25.072C19.3456 25.2973 19.658 25.3853 19.9507 25.3028C20.2434 25.2204 20.472 24.98 20.5505 24.6722C20.6289 24.3645 20.5452 24.0361 20.331 23.8108L17.5432 20.8888L24.4886 20.8888C24.9552 20.8888 25.3334 20.4912 25.3334 20.0006C25.3334 19.5101 24.9552 19.1125 24.4886 19.1125L17.5432 19.1125L20.331 16.1904C20.4909 16.0237 20.5808 15.7967 20.5808 15.5599C20.5808 15.323 20.4909 15.096 20.331 14.9293C20.1723 14.7612 19.9564 14.6666 19.7312 14.6666C19.5059 14.6666 19.29 14.7612 19.1314 14.9293L14.9075 19.37C14.8306 19.4545 14.7703 19.5541 14.7301 19.6632C14.6456 19.8794 14.6456 20.1219 14.7301 20.3382Z" fill="#082C4E"/>
</g>
<defs>
<clipPath id="clip0">
<rect width="40" height="40" fill="white" transform="translate(40 40) rotate(-180)"/>
</clipPath>
</defs>
</svg>
