<svg width="627" height="607" viewBox="0 0 627 607" fill="none" xmlns="http://www.w3.org/2000/svg">
<path d="M512.902 500.758H492.253L494.962 508.038C490.524 509.483 480.428 512.796 475.895 514.099C471.674 515.313 470.517 520.215 473.881 522.495C475.288 523.449 477.173 523.92 479 523.913L509.812 523.803C514.095 523.787 516.922 522.654 517.495 519.026C517.627 518.195 517.555 517.341 517.328 516.531L512.902 500.758Z" fill="#072C4E"/>
<path d="M396.583 500.9H374.687L377.092 508.02C372.654 509.466 362.268 512.907 357.736 514.21C353.515 515.423 352.358 520.324 355.722 522.605C357.129 523.559 359.014 523.92 360.841 523.914H394.129C394.177 523.914 394.225 523.913 394.273 523.912C399.294 523.851 402.735 518.804 401.089 514.056L396.583 500.9Z" fill="#072C4E"/>
<path d="M466.626 298.256C466.626 298.256 481.342 340.202 494.598 383.272C500.537 402.567 521.026 475.682 527.289 493.641C528.413 496.863 526.023 500.598 522.613 500.598H482.05C477.756 500.598 473.188 497.24 471.894 493.141C443.359 402.7 426.858 316.474 426.858 316.474C426.858 316.374 393.715 373.019 386.942 384.595C386.17 385.915 385.934 387.474 386.283 388.963C389.28 401.772 404.04 464.434 412.928 494.473C413.801 497.425 411.668 500.509 408.591 500.533C408.57 500.533 408.548 500.534 408.527 500.533H370.157C367.117 500.533 363.922 498.144 363.048 495.229C352.668 460.65 345.28 426.805 339.01 395.643C336.272 382.043 338.911 374.924 349.794 358.982C362.202 340.805 392.26 292.297 395.63 288.924" stroke="#082C4E" stroke-width="1.17148" stroke-linecap="round" stroke-linejoin="round"/>
<path d="M173.396 501.105H152.748L152.373 506.963C147.935 508.408 136.253 512.196 131.72 513.499C127.5 514.712 126.343 519.614 129.707 521.895C131.113 522.848 133.133 523.209 134.96 523.203H164.4C169.231 523.185 172.208 521.745 172.191 516.909L173.396 501.105Z" fill="#072C4E"/>
<path d="M279.394 500.544H301.29L307.094 506.962C311.532 508.408 323.214 512.196 327.746 513.499C331.967 514.712 333.123 519.614 329.759 521.895C328.353 522.848 326.467 523.208 324.64 523.202H291.352C286.522 523.184 283.959 521.146 283.031 517.274L279.394 500.544Z" fill="#072C4E"/>
<path d="M262.283 329.913C284.524 371.493 317.611 450.685 326.837 492.851C327.61 496.386 324.953 500.492 321.339 500.546H270.8C267.938 500.589 264.833 497.043 264.409 494.209C257.333 446.987 209.371 332.218 202.406 308.827C202.406 308.827 194.584 455.037 194.063 490.633C193.988 495.788 190.549 501.166 185.398 501.166H143.309C137.595 501.166 133.196 496.12 133.973 490.453C143.825 418.616 150.66 339.249 159.944 295.67" stroke="#082C4E" stroke-width="1.17148" stroke-linecap="round" stroke-linejoin="round"/>
<path d="M233.973 292.634C237.568 299.044 242.82 306.076 246.106 310.177" stroke="#082C4E" stroke-width="1.17148" stroke-linecap="round" stroke-linejoin="round"/>
<path d="M121.747 522.182C240.175 524.713 339.572 523.627 339.572 523.627" stroke="#082C4E" stroke-width="1.17148" stroke-linecap="round" stroke-linejoin="round"/>
<path d="M359.456 522.829C376.179 523.186 389.949 523.326 403.97 523.503C489.241 524.581 525.773 523.616 525.773 523.616" stroke="#082C4E" stroke-width="1.17148" stroke-linecap="round" stroke-linejoin="round"/>
<path d="M294.199 164.768C294.199 164.768 316.799 197.202 347.359 213.159C377.246 228.759 415.686 229.09 417.364 229.096" stroke="#092C4E" stroke-width="28.7013" stroke-linejoin="round"/>
<path d="M294.199 164.768C294.199 164.768 316.799 197.202 347.359 213.159C377.246 228.759 415.686 229.09 417.364 229.096" stroke="#FFCC00" stroke-width="26.3583"/>
<path d="M303.421 153.292L278.991 172.46L282.658 175.129L306.919 159.202L303.421 153.292Z" fill="#FFCC00"/>
<path d="M290.94 165.571C287.267 164.774 283.376 157.291 282.29 154C281.453 151.467 282.037 149.531 284.279 148.526C287.508 147.078 291.797 150.858 292.448 151.662" stroke="#082C4E" stroke-width="1.17148" stroke-linecap="round" stroke-linejoin="round"/>
<path d="M290.447 155.797C291.225 156.671 293.105 159.86 293.588 160.925" stroke="#082C4E" stroke-width="1.17148" stroke-linecap="round" stroke-linejoin="round"/>
<path d="M281.345 152.549C277.351 151.718 276.667 155.277 276.924 157.187C277.579 162.062 281.915 168.279 284.509 170.557C285.302 171.252 286.517 171.446 287.505 171.081C288.493 170.717 289.202 169.566 288.859 168.57" stroke="#082C4E" stroke-width="1.17148" stroke-linecap="round" stroke-linejoin="round"/>
<path d="M276.563 156.379C273.356 156.295 272.566 159.725 273.092 162.408C273.996 167.022 277.681 170.767 279.851 172.308C280.903 173.054 283.799 173.767 284.738 171.16" stroke="#082C4E" stroke-width="1.17148" stroke-linecap="round" stroke-linejoin="round"/>
<path d="M308.196 156.914C308.196 156.914 305.344 154.628 298.524 144.856C294.952 139.739 292.988 136.738 291.116 134.932C288.789 132.688 286.69 131.914 285.525 133.191C284.212 134.631 285.646 139.303 287.305 142.638C290.234 148.524 297.585 159.652 299.606 162.219" stroke="#082C4E" stroke-width="1.17148" stroke-linecap="round" stroke-linejoin="round"/>
<path d="M308.161 166.043C305.081 163.577 294.722 160.891 292.308 160.967C289.283 161.062 289.405 164.301 291.644 166.193C294.444 168.561 299.339 169.92 299.749 169.939C300.855 169.992 294.643 171.611 294.013 175.742" stroke="#082C4E" stroke-width="1.17148" stroke-linecap="round" stroke-linejoin="round"/>
<path d="M510.074 353.674C510.074 353.674 535.405 317.124 520.185 280.419C505.296 244.49 463.094 236.198 461.295 235.854" stroke="#092C4E" stroke-width="28.7013" stroke-linejoin="round"/>
<path d="M510.074 353.674C510.074 353.674 535.405 317.124 520.185 280.419C505.296 244.49 463.094 236.198 461.295 235.854" stroke="#FFCC00" stroke-width="26.3583"/>
<path d="M459.15 299.592L401.962 290.65C398.778 290.152 396.601 287.165 397.098 283.978L406.37 224.558C407.836 215.165 416.63 208.74 426.013 210.207L460.752 215.639C470.136 217.106 476.554 225.911 475.089 235.304L465.815 294.723C465.318 297.91 462.335 300.09 459.15 299.592Z" fill="#2F97F3"/>
<path d="M484.459 458.607L394.864 418.528L447.602 300.483L537.197 340.561L484.459 458.607Z" fill="white"/>
<path d="M420.742 402.185C435.635 382.931 450.562 363.703 465.521 344.5C466.526 343.21 467.638 341.846 469.212 341.403C470.828 340.947 472.53 341.577 474.09 342.196C479.504 344.344 484.917 346.492 490.331 348.64" stroke="#082C4E" stroke-width="1.17148" stroke-linecap="round" stroke-linejoin="round"/>
<path d="M422.055 404.899C425.189 405.812 435.224 410.202 435.224 410.202C435.224 410.202 454.504 386.391 455.096 386.278C455.417 386.218 468.05 391.363 467.899 391.864C464.859 401.964 462.79 412.377 460.648 419.339C460.523 419.748 476.884 427.033 477.164 426.912C477.668 426.695 478.091 425.024 478.21 424.488C480.278 415.161 489.379 370.855 489.676 363.778" stroke="#082C4E" stroke-width="1.17148" stroke-linecap="round" stroke-linejoin="round"/>
<path d="M462.029 374.674C462.029 374.674 469.391 378.051 471.386 378.827C471.82 378.996 475.516 356.126 475.516 356.126L462.029 374.674Z" stroke="#082C4E" stroke-width="1.17148" stroke-linecap="round" stroke-linejoin="round"/>
<path d="M496.677 344.485C493.497 349.479 484.265 358.684 487.016 360.852C490.294 363.435 496.868 355.716 499.759 351.815" stroke="#082C4E" stroke-width="1.17148" stroke-linecap="round" stroke-linejoin="round"/>
<path d="M494.361 369.449C494.284 372.1 497.701 371.535 499.593 370.451C504.579 367.594 507.996 362.052 510.434 358.072" stroke="#082C4E" stroke-width="1.17148" stroke-linecap="round" stroke-linejoin="round"/>
<path d="M500.821 349.687C498.976 353.102 498.545 355.009 494.022 360.881C491.586 364.042 488.022 368.271 490.245 369.54C494.731 372.1 502.251 361.389 505.662 355.243" stroke="#082C4E" stroke-width="1.17148" stroke-linecap="round" stroke-linejoin="round"/>
<path d="M500.028 372.173C500.446 372.867 501.787 373.841 503.954 372.965C507.542 371.516 511.237 368.823 513.165 365.466" stroke="#082C4E" stroke-width="1.17148" stroke-linecap="round" stroke-linejoin="round"/>
<path d="M496.631 344.343C496.631 344.343 504.592 334.423 506.666 321.611" stroke="#092C4E" stroke-width="1.17148"/>
<path d="M534.737 337.847C534.737 337.847 532.001 348.704 527.252 356.275" stroke="#092C4E" stroke-width="1.17148"/>
<path d="M396.953 243.691C396.953 243.691 400.938 244.643 414.106 243.227" stroke="#092C4E" stroke-width="1.17148"/>
<path d="M404.505 212.54C404.505 212.54 408.804 213.087 420.667 212.594" stroke="#092C4E" stroke-width="1.17148"/>
<path d="M474.338 256.925C474.338 256.925 470.147 254.242 460.633 253.062" stroke="#092C4E" stroke-width="1.17148"/>
<path d="M479.216 224.599C479.216 224.599 470.725 220.958 462.533 220.667" stroke="#092C4E" stroke-width="1.17148"/>
<path d="M441.748 193.427C441.748 193.427 436.297 197.104 430.163 194.083" stroke="#082C4E" stroke-width="1.17148" stroke-linecap="round" stroke-linejoin="round"/>
<path d="M434.205 184.656L431.047 189.739L433.767 191.193" stroke="#082C4E" stroke-width="1.17148" stroke-linecap="round" stroke-linejoin="round"/>
<path d="M433.936 183.883C433.786 186.116 431.856 187.805 429.625 187.655C427.394 187.505 425.707 185.574 425.857 183.34C426.006 181.107 427.936 179.418 430.167 179.568C432.398 179.718 434.085 181.649 433.936 183.883Z" stroke="#082C4E" stroke-width="1.17148" stroke-linecap="round" stroke-linejoin="round"/>
<path d="M444.024 185.018C443.874 187.251 441.944 188.94 439.713 188.79C437.483 188.64 435.795 186.709 435.946 184.476C436.095 182.243 438.025 180.554 440.255 180.703C442.486 180.853 444.173 182.784 444.024 185.018Z" stroke="#082C4E" stroke-width="1.17148" stroke-linecap="round" stroke-linejoin="round"/>
<path d="M434.225 184.36L435.946 184.476L434.225 184.36Z" fill="#2F97F3"/>
<path d="M434.225 184.36L435.946 184.476" stroke="#082C4E" stroke-width="1.17148" stroke-linecap="round" stroke-linejoin="round"/>
<path d="M448.474 170.272C446.352 167.477 443.088 165.575 439.314 165.322C432.388 164.857 426.397 170.1 425.933 177.033L442.271 178.129C443.799 181.254 446.846 182.348 449.426 182.857C452.085 183.381 453.286 184.748 453.589 186.402C453.666 186.821 453.719 187.267 453.77 187.729C454.359 187.513 455.001 187.41 455.668 187.455C458.214 187.626 460.139 189.83 459.968 192.378C459.864 193.933 459.002 195.254 457.768 196.011C459.256 197.072 461.052 197.736 463.008 197.868C463.023 197.868 463.038 197.868 463.054 197.87C464.25 195.599 465.002 193.049 465.184 190.324C465.863 180.197 458.446 171.402 448.474 170.272Z" fill="#FD6470"/>
<path d="M462.278 198.94C458.748 204.084 452.829 207.458 446.124 207.458C435.309 207.458 426.541 198.681 426.541 187.854C426.541 187.34 426.56 186.831 426.599 186.325" stroke="#082C4E" stroke-width="1.17148" stroke-linecap="round" stroke-linejoin="round"/>
<path d="M199.664 178.147L204.808 181.647L202.677 184.418" stroke="#082C4E" stroke-width="1.17148" stroke-linecap="round" stroke-linejoin="round"/>
<path d="M205.069 186.676C205.069 186.676 200.452 190.349 195.386 188.845C195.386 188.845 196.199 195.456 202.597 194.229" stroke="#082C4E" stroke-width="1.17148" stroke-linecap="round" stroke-linejoin="round"/>
<path d="M203.192 174.415C205.848 177.767 207.43 182.01 207.422 186.621C207.402 197.448 198.618 206.209 187.803 206.189C181.994 206.178 176.782 203.638 173.203 199.611" stroke="#082C4E" stroke-width="1.17148" stroke-linecap="round" stroke-linejoin="round"/>
<path d="M202.789 172.989C198.598 168.133 192.307 165.566 185.942 166.072C185.93 166.072 184.338 166.229 183.272 166.482C181.735 166.848 180.41 167.285 179.423 167.719C177.224 168.688 175.284 169.995 173.634 171.547C173.287 171.184 172.914 170.839 172.498 170.529C168.489 167.544 162.821 168.378 159.84 172.391C156.858 176.404 157.69 182.077 161.699 185.062C163.395 186.325 165.387 186.897 167.347 186.841C167.407 188.345 167.639 189.861 168.055 191.363C169.119 195.752 171.944 198.977 171.944 198.977C177.366 196.823 179.846 194.789 180.97 192.823C180.812 192.828 180.653 192.825 180.492 192.814C177.947 192.638 176.026 190.431 176.201 187.883C176.376 185.335 178.582 183.411 181.127 183.587C181.556 183.617 181.964 183.708 182.351 183.845C182.782 182.792 183.57 181.735 184.998 180.666C189.319 177.435 190.594 174.288 190.443 171.748C194.255 173.414 198.567 173.911 202.789 172.989Z" fill="#2F97F3"/>
<path d="M58.4339 477.973C58.4339 487.864 64.6296 496.302 73.3462 499.623C68.1871 502.346 64.6687 507.765 64.6687 514.009V522.379H103.426V514.009C103.426 507.765 99.9071 502.346 94.748 499.623C103.465 496.302 109.66 487.864 109.66 477.973V454.353H58.4339V477.973Z" fill="#2F97F3"/>
<path d="M67.6668 419.985C73.386 431.609 77.5495 443.998 80.0124 456.719" stroke="#082C4E" stroke-width="1.17148" stroke-linecap="round" stroke-linejoin="round"/>
<path d="M84.6766 455.581C87.0917 439.332 98.2698 418.19 101.864 414.873" stroke="#082C4E" stroke-width="1.17148" stroke-linecap="round" stroke-linejoin="round"/>
<path d="M75.5725 454.028C72.7806 450.557 70.1418 446.962 67.6668 443.259C66.0383 440.821 62.0406 433.821 65.2349 433C67.1147 432.517 69.8479 436.238 71.6213 438.42C66.5593 431.025 61.6955 422.893 61.498 413.93C61.4246 410.595 62.4525 406.948 65.3353 405.275C68.9495 403.177 72.4322 406.776 74.1173 409.699C79.2574 418.619 78.1048 425.105 79.2669 435.333C79.5243 434.511 79.678 432.021 80.9405 432.014C85.0238 431.991 83.4425 450.043 82.486 453.894" stroke="#082C4E" stroke-width="1.17148" stroke-linecap="round" stroke-linejoin="round"/>
<path d="M84.8458 433.203C86.2283 426.455 89.8249 410.911 94.3867 411.125C96.3596 411.218 96.4095 414.44 96.2383 415.322C97.9227 409.672 102.377 404.92 107.905 402.88C109.216 402.396 110.762 402.08 111.949 402.816C113.022 403.482 113.481 404.857 113.391 406.116C113.3 407.375 112.754 408.55 112.199 409.684C109.989 414.192 105.988 420.078 103.213 424.263C106.808 421.788 108.368 421.234 110.262 421.544C111.783 421.794 112.785 423.412 112.832 424.955C112.88 426.498 112.198 427.963 111.465 429.322C108.53 434.763 104.494 439.604 99.6718 443.469C101.055 443.673 102.805 442.451 103.663 443.556C103.88 443.836 103.952 444.205 103.955 444.56C103.966 446.137 102.789 447.447 101.62 448.502C98.6709 451.165 95.2812 453.335 91.6306 454.899" stroke="#082C4E" stroke-width="1.17148" stroke-linecap="round" stroke-linejoin="round"/>
<path d="M487.103 138.5H530.358V197.738H487.103V138.5Z" fill="#FD6470"/>
<path d="M492.963 144.736H524.469V191.112H492.963V144.736Z" stroke="#082C4E" stroke-width="1.17148" stroke-linecap="round" stroke-linejoin="round"/>
<path d="M513.605 162.992C513.605 167.402 510.033 170.976 505.628 170.976C501.223 170.976 497.652 167.402 497.652 162.992C497.652 158.583 501.223 155.008 505.628 155.008C510.033 155.008 513.605 158.583 513.605 162.992Z" stroke="#082C4E" stroke-width="1.17148" stroke-linecap="round" stroke-linejoin="round"/>
<path d="M509.111 180.647C509.111 177.293 511.827 174.575 515.177 174.575C518.528 174.575 521.244 177.293 521.244 180.647" stroke="#082C4E" stroke-width="1.17148" stroke-linecap="round" stroke-linejoin="round"/>
<path d="M267.337 323.447C299.712 307.804 325.714 289.685 317.081 257.508C303.847 208.18 222.516 216.615 222.516 216.615" stroke="#082C4E" stroke-width="1.17148" stroke-linecap="round" stroke-linejoin="round"/>
<path d="M229.369 247.09C229.369 247.09 274.864 241.073 286.325 258.785C294.264 271.055 289.74 283.597 271.945 293.871C264.243 298.319 251.834 302.045 244.083 306.607" stroke="#082C4E" stroke-width="1.17148" stroke-linecap="round" stroke-linejoin="round"/>
<path d="M258.884 322.351C257.178 325.366 255.201 330.062 254.924 333.906C254.887 334.435 254.961 335.274 255.32 335.663C255.946 336.343 257.083 335.909 257.813 335.343" stroke="#082C4E" stroke-width="1.17148" stroke-linecap="round" stroke-linejoin="round"/>
<path d="M248.921 307.711C246.723 309.871 244.512 312.044 242.701 314.54C240.89 317.034 239.481 319.891 239.085 322.949C239.004 323.572 239.021 324.322 239.541 324.674C239.816 324.86 240.174 324.881 240.502 324.827C241.702 324.627 242.548 323.58 243.294 322.619C245.446 319.848 247.731 317.181 250.14 314.631C247.753 318.359 245.335 322.148 244.068 326.39C243.904 326.938 243.758 327.509 243.831 328.077C243.904 328.645 244.241 329.213 244.781 329.4C245.284 329.575 245.838 329.393 246.318 329.162C248.497 328.116 250.05 326.11 251.33 324.057C252.608 322.005 254.109 319.371 255.036 318.106C252.794 321.34 249.728 326.427 248.942 331.15C248.69 332.66 248.993 333.934 249.812 334.412C250.824 335.001 252.01 333.763 252.355 333.356C254.944 330.319 256.967 325.443 258.799 322.491" stroke="#082C4E" stroke-width="1.17148" stroke-linecap="round" stroke-linejoin="round"/>
<path d="M154.095 123.441C154.095 123.441 88.3697 142.002 95.7503 190.812C102.989 238.664 168.761 237.915 171.323 237.868" stroke="#092C4E" stroke-width="28.7013" stroke-linejoin="round"/>
<path d="M154.095 123.441C154.095 123.441 88.3697 142.002 95.7503 190.812C102.989 238.664 168.761 237.915 171.323 237.868" stroke="#FFCC00" stroke-width="26.3583"/>
<path d="M250.46 97.6791L248.943 92.8501C248.539 91.5641 247.435 90.6247 246.102 90.4332L202.343 84.1395C200.928 83.9365 199.485 84.1585 198.197 84.7786L172.546 98.7195C170.96 94.71 166.474 92.6541 162.39 94.125L155.612 96.5671C151.446 98.0671 149.285 102.662 150.783 106.83L163.267 141.56C164.765 145.728 169.356 147.891 173.522 146.391L180.3 143.949C183.664 142.737 185.718 139.507 185.596 136.113L213.346 133.29C214.828 133.117 216.216 132.473 217.306 131.452L249.512 101.289C250.496 100.368 250.864 98.9644 250.46 97.6791Z" fill="white"/>
<path d="M249.79 95.5595L215.765 106.271" stroke="#082C4E" stroke-width="1.17148" stroke-linecap="round" stroke-linejoin="round"/>
<path d="M204.731 109.745C203.773 106.695 205.467 103.444 208.514 102.485C211.562 101.526 214.809 103.221 215.767 106.27C216.726 109.32 215.032 112.571 211.985 113.531C208.937 114.49 205.69 112.794 204.731 109.745Z" stroke="#082C4E" stroke-width="1.17148" stroke-linecap="round" stroke-linejoin="round"/>
<path d="M148.307 110.629L155.919 137.753L159.822 137.628L151.331 108.617L148.307 110.629Z" fill="#FFCC00"/>
<path d="M147.277 122.093C151.265 120.035 157.269 118.24 161.8 115.621C166.173 113.093 164.707 110.76 160.686 111.342C157.68 111.778 150.336 113.552 144.892 116.021" stroke="#082C4E" stroke-width="1.17148" stroke-linecap="round" stroke-linejoin="round"/>
<path d="M149.494 128.175C150.814 127.325 168.901 121.692 166.924 118.531C164.952 115.379 149.865 121.544 147.365 122.174" stroke="#082C4E" stroke-width="1.17148" stroke-linecap="round" stroke-linejoin="round"/>
<path d="M151.973 133.342C164.312 128.161 169.679 126.372 168.529 124.178C167.397 122.019 156.473 126.023 149.662 128.167" stroke="#082C4E" stroke-width="1.17148" stroke-linecap="round" stroke-linejoin="round"/>
<path d="M235.725 281.487C234.97 272.197 226.978 265.238 217.745 265.696C224.074 262.663 228.15 255.907 227.436 248.51L225.231 225.665C224.318 216.202 215.915 209.271 206.461 210.186L174.131 213.313C164.678 214.227 157.755 222.639 158.669 232.101L160.873 254.946C161.539 261.851 166.196 267.403 172.337 269.547C164.078 271.376 158.226 279.068 158.931 287.744C159.701 297.22 167.999 304.275 177.465 303.504L219.981 300.041C229.447 299.269 236.496 290.962 235.725 281.487Z" fill="#FD6470"/>
<path d="M332.314 523.73C399.598 523.762 457.048 524.729 518.57 523.461" stroke="#082C4E" stroke-width="1.23316" stroke-linecap="round" stroke-linejoin="round"/>
<path d="M135.198 522.319H129.985C116.534 522.319 105.63 511.404 105.63 497.939V463.132H159.553V497.939C159.553 511.404 148.65 522.319 135.198 522.319Z" fill="#FD6470"/>
<path d="M120.957 470.231C115.622 451.726 107.344 406.253 111.424 403.056C119.759 396.527 123.53 433.845 123.679 447.499C123.799 432.027 123.197 423.441 124.55 408.028C125.969 391.87 128.061 379.259 133.064 381.571C139.982 384.767 134.119 429.712 133.835 444.349C136.32 425.737 145 383.465 153.82 386.903C160.417 389.474 152.742 429.673 145.611 447.907C148.035 444.484 154.789 429.991 158.252 432.354C166.569 438.026 149.092 462.947 140.869 468.755" stroke="#082C4E" stroke-width="1.84974" stroke-linecap="round" stroke-linejoin="round"/>
<path d="M280.873 211.29H215.134C210.168 211.29 206.142 207.261 206.142 202.289V147.242C206.142 142.271 210.641 138.241 215.607 138.241H281.345C286.312 138.241 289.865 142.271 289.865 147.242V202.289C289.865 207.261 285.839 211.29 280.873 211.29Z" fill="white"/>
<path d="M268.539 199.204H228.451C221.888 199.204 216.567 193.878 216.567 187.307C216.567 180.737 221.888 175.41 228.451 175.41H268.539C275.103 175.41 280.424 180.737 280.424 187.307C280.424 193.878 275.103 199.204 268.539 199.204Z" fill="#3098F3"/>
<path d="M223.288 154.595C233.29 154.856 243.707 154.96 253.866 154.699" stroke="#072C4E" stroke-width="1.23316" stroke-linecap="round" stroke-linejoin="round"/>
<path d="M223.809 161.738C227.351 161.79 233.498 161.634 238.499 161.842" stroke="#072C4E" stroke-width="1.23316" stroke-linecap="round" stroke-linejoin="round"/>
<path d="M382.974 148.276L317.234 142.532L318.617 126.616C320.196 108.449 336.193 95.0079 354.347 96.5942C372.501 98.1805 385.937 114.194 384.358 132.361L382.974 148.276Z" fill="#2F97F3"/>
<path d="M352.745 97.2599C352.745 97.2599 354.498 77.9836 355.598 65.4832C356.676 53.2384 358.287 34.4949 358.35 33.7207" stroke="#082C4E" stroke-width="2.46632" stroke-linecap="round" stroke-linejoin="round"/>
<path d="M340.196 143.617C341.371 148.839 346.338 152.953 351.683 153.13C357.027 153.309 362.257 149.534 363.776 144.403" stroke="#082C4E" stroke-width="1.84974" stroke-linecap="round" stroke-linejoin="round"/>
<path d="M267.351 298.619H243.167C238.73 298.619 235.133 295.018 235.133 290.577V266.369C235.133 261.928 238.73 258.327 243.167 258.327H267.351C271.788 258.327 275.384 261.928 275.384 266.369V290.577C275.384 295.018 271.788 298.619 267.351 298.619Z" fill="white"/>
<path d="M255.2 288.508C260.321 288.508 264.472 284.353 264.472 279.226C264.472 274.1 260.321 269.944 255.2 269.944C250.078 269.944 245.928 274.1 245.928 279.226C245.928 284.353 250.078 288.508 255.2 288.508Z" stroke="#072C4E" stroke-width="1.23316" stroke-linecap="round" stroke-linejoin="round"/>
<path d="M225.274 258.052C225.274 275.747 210.945 290.091 193.268 290.091C175.593 290.091 161.263 275.747 161.263 258.052C161.263 240.357 175.593 226.013 193.268 226.013C210.945 226.013 225.274 240.357 225.274 258.052Z" fill="#2F97F3"/>
<path d="M397.87 252.394C385.647 260.69 355.604 288.08 325.251 292.191C313.339 293.804 300.603 285.166 295.173 273.475C284.854 251.259 292.779 223.981 291.9 213.653" stroke="#082C4E" stroke-width="1.23316" stroke-linecap="round" stroke-linejoin="round"/>
<path d="M421.101 210.272C394.204 209.189 377.207 222.58 366.242 231.731C355.516 240.68 339.447 258.411 325.666 257.018C321.087 256.555 315.904 252.225 314.796 243.006C313.506 232.261 313.318 220.051 313.318 220.051L313.457 216.658C315.478 206.218 310.184 197.338 299.755 192.977C297.326 191.962 293.835 191.046 291.247 190.56C286.394 189.647 281.502 188.731 276.564 188.81C275.779 188.823 274.98 189.09 274.622 189.79C272.827 193.294 280.799 196.369 284.316 197.754C286.938 198.786 289.909 199.435 291.746 201.574" stroke="#082C4E" stroke-width="1.23316" stroke-linecap="round" stroke-linejoin="round"/>
<path d="M290.611 200.691C287.343 200.575 285.576 204.659 285.826 206.653C286.41 211.327 291.834 212.236 292.417 213.814" stroke="#082C4E" stroke-width="1.23316" stroke-linecap="round" stroke-linejoin="round"/>
<path d="M303.684 216.675C294.111 215.859 298.496 207.224 294.575 207.212C291.927 207.203 288.978 208.171 289.211 205.017C289.368 202.89 292.222 202.254 292.947 202.095C297.902 201.002 303.272 202.458 306.722 206.181" stroke="#082C4E" stroke-width="1.23316" stroke-linecap="round" stroke-linejoin="round"/>
<path d="M353.164 487.633L334.239 490.063L333.312 508.419C329.345 509.694 318.903 513.037 314.853 514.185C311.081 515.255 310.032 519.627 313.028 521.674C314.28 522.53 315.961 522.956 317.592 522.956H343.995C348.307 522.956 350.971 521.681 350.971 517.364L353.164 487.633Z" fill="#072C4E"/>
<path d="M385.303 283.585C385.303 283.585 342.244 338.819 333.812 364.997C327.168 385.621 375.254 394.64 375.591 391.108C378.005 365.847 422.046 303.973 424.669 296.601" fill="#FFCC00"/>
<path d="M385.303 283.585C385.303 283.585 342.244 338.819 333.812 364.997C327.168 385.621 375.254 394.64 375.591 391.108C378.005 365.847 422.046 303.973 424.669 296.601" stroke="#092C4E" stroke-width="1.43159"/>
<path d="M336.24 358.855C316.429 393.355 302.731 499.342 311.668 500.408C318.365 501.208 362.166 502.771 365.687 503.231C380.698 505.195 366.243 422.134 376.359 386.412" fill="#FFCC00"/>
<path d="M336.24 358.855C316.429 393.355 302.731 499.342 311.668 500.408C318.365 501.208 362.166 502.771 365.687 503.231C380.698 505.195 366.243 422.134 376.359 386.412" stroke="#092C4E" stroke-width="1.34511"/>
<path d="M499.648 472.545L487.661 486.288L499.646 499.55C497.861 503.319 493.151 513.228 491.215 516.971C489.414 520.456 491.881 524.213 495.422 523.427C496.903 523.099 498.363 522.164 499.479 520.973L517.546 501.701C520.497 498.553 521.39 495.736 518.246 492.782L499.648 472.545Z" fill="#072C4E"/>
<path d="M427.845 279.823C403.358 282.222 413.219 315.637 413.219 315.637C413.219 315.637 399.457 356.496 427.389 407.155C439.222 428.616 480.156 400.242 476.338 391.625C457.671 349.49 464.281 332.322 464.489 322.297C464.697 312.273 457.867 276.882 427.845 279.823Z" fill="#FFCC00"/>
<path d="M427.845 279.823C403.358 282.222 413.219 315.637 413.219 315.637C413.219 315.637 399.457 356.496 427.389 407.155C439.222 428.616 480.156 400.242 476.338 391.625C457.671 349.49 464.281 332.322 464.489 322.297C464.697 312.273 457.867 276.882 427.845 279.823Z" stroke="#092C4E" stroke-width="1.2241"/>
<path d="M434.71 275.967C388.625 261.839 398.391 287.739 398.391 287.739C398.391 287.739 400.793 318.068 416.769 318.12C432.744 318.173 448.881 280.311 434.71 275.967Z" fill="#FFCC00"/>
<path d="M422.082 395.705C442.067 460.075 474.111 504.413 480.843 504.023C485.307 503.764 528.076 467.765 525.248 464.584C519.332 457.927 485.413 428.877 468.774 369.612" fill="#FFCC00"/>
<path d="M422.082 395.705C442.067 460.075 474.111 504.413 480.843 504.023C485.307 503.764 528.076 467.765 525.248 464.584C519.332 457.927 485.413 428.877 468.774 369.612" stroke="#092C4E" stroke-width="1.23361"/>
<path d="M459.075 301.603L380.149 297.128C378.061 297.009 376.744 293.377 377.493 289.803L384.367 256.979C385.865 249.828 389.807 245.025 393.984 245.262L451.181 248.505C455.358 248.743 458.733 253.96 459.414 261.234L462.541 294.626C462.881 298.262 461.163 301.722 459.075 301.603Z" fill="#FD6470"/>
<path d="M452.002 267.005L391.081 263.55L392.806 233.058C393.759 216.218 408.17 203.34 424.993 204.294C441.816 205.248 454.681 219.673 453.728 236.514L452.002 267.005Z" fill="#FD6470"/>
<path d="M474.906 232.448L475.882 211.813C476.025 208.955 473.796 206.515 470.94 206.376L378.11 201.914C375.255 201.774 372.817 204.006 372.684 206.864L371.707 227.498C371.147 239.418 375.331 250.502 382.711 258.798C379.02 259.774 375.957 262.632 374.696 266.396L367.391 289.191C366.624 291.7 368.36 294.21 370.94 294.349L469.338 299.09C471.918 299.23 473.937 296.859 473.379 294.28L468.227 270.857C467.383 266.954 464.605 263.886 460.981 262.492C469.063 255.033 474.356 244.438 474.906 232.448Z" fill="#FD6470"/>
<path d="M449.059 169.189C447.111 168.789 445.48 167.465 444.698 165.634C444.234 164.545 443.694 163.367 443.184 162.46C440.56 157.8 434.827 155.746 429.847 157.684C423.904 159.996 421.273 166.816 423.964 172.474C425.76 176.249 426.708 184.053 441.297 192.696L462.526 181.725C462.526 181.725 462.153 178.803 459.856 175.42C456.249 170.11 452.473 169.892 449.059 169.189Z" fill="white"/>
<path d="M401.997 157.854C403.946 157.454 405.576 156.131 406.358 154.299C406.823 153.21 407.363 152.032 407.874 151.125C410.497 146.465 416.23 144.411 421.21 146.349C427.153 148.661 429.784 155.481 427.093 161.139C425.297 164.914 422.425 170.951 407.836 179.594L388.53 170.39C388.53 170.39 388.904 167.468 391.201 164.085C394.808 158.774 398.583 158.557 401.997 157.854Z" fill="white"/>
<path d="M414.681 159.865C414.681 164.274 418.25 167.848 422.654 167.848C427.058 167.848 430.629 164.274 430.629 159.865C430.629 155.457 427.058 151.883 422.654 151.883C418.25 151.883 414.681 155.457 414.681 159.865Z" fill="#072C4E"/>
<path d="M423.758 155.393C420.227 155.393 416.913 156.318 414.043 157.94C408.03 161.339 403.971 167.794 403.971 175.199C403.971 186.139 412.83 195.006 423.758 195.006C434.686 195.006 443.545 186.139 443.545 175.199C443.545 175.199 443.9 168.814 439.554 163.398C436.774 159.934 423.758 155.393 423.758 155.393Z" fill="#FFCC00"/>
<path d="M413.792 158.411C407.78 161.81 403.721 168.266 403.721 175.671C403.721 186.61 412.579 195.478 423.506 195.478C434.435 195.478 443.294 186.61 443.294 175.671" stroke="#082C4E" stroke-width="1.23316" stroke-linecap="round" stroke-linejoin="round"/>
<path d="M415.095 157.55C417.739 156.244 420.714 155.508 423.86 155.508C433.841 155.508 442.098 162.888 443.487 172.492C441.507 173.035 439.422 173.327 437.27 173.327C427.009 173.327 418.286 166.734 415.095 157.55Z" fill="white"/>
<path d="M413.408 173.273L409.58 178.649L413.512 180.463" stroke="#082C4E" stroke-width="1.23316" stroke-linecap="round" stroke-linejoin="round"/>
<path d="M409.58 184.112C414.447 186.324 418.538 181.916 418.538 181.916C418.538 181.916 420.196 187.772 415.173 189.171" stroke="#082C4E" stroke-width="1.23316" stroke-linecap="round" stroke-linejoin="round"/>
<path d="M484.456 221.583C474.523 219.452 475.958 252.451 475.958 252.451C475.958 252.451 495.291 260.08 492.452 297.723C489.614 335.367 451.133 343.892 451.133 343.892C451.133 343.892 451.827 347.948 454.665 347.594C457.504 347.239 462.049 348.007 452.198 352.594C443.838 356.486 454.848 357.024 453.783 358.8C452.719 360.576 460.679 365.042 460.679 365.042C460.679 365.042 466.919 368.797 474.723 365.068C482.528 361.338 505.757 345.672 514.804 318.682C523.851 291.692 520.835 265.945 514.981 254.226C509.127 242.507 494.388 223.713 484.456 221.583Z" fill="#FFCC00"/>
<path d="M469.343 349.045C461.562 355.332 451.317 358.924 448.781 356.755C446.611 354.958 448.933 353.012 451.917 351.74C456.185 349.943 461.562 347.922 464.332 345.003" stroke="#072C4E" stroke-width="1.32755" stroke-linecap="round" stroke-linejoin="round"/>
<path d="M471.43 354.059C467.326 358.549 453.709 364.089 452.069 360.048C451.55 358.775 452.517 357.651 453.566 357.128" stroke="#072C4E" stroke-width="1.32755" stroke-linecap="round" stroke-linejoin="round"/>
<path d="M460.37 213.49C490.425 218.73 509.122 234.597 517.942 261.019C525.948 285.121 521.455 324.342 493.937 351.138C484.151 360.72 474.649 365.809 467.621 367.008C463.813 367.68 461.336 367.081 459.839 365.809" stroke="#072C4E" stroke-width="1.32755" stroke-linecap="round" stroke-linejoin="round"/>
<path d="M459.922 348.148C454.688 348.746 448.026 348.82 448.474 346.576C449.004 344.105 456.255 341.487 458.649 340.514C462.163 339.091 468.811 335.274 471.287 333.401C484.894 322.848 494.019 309.525 492.818 287.445C490.954 254.361 467.775 246.278 454.759 242.011" stroke="#072C4E" stroke-width="1.32755" stroke-linecap="round" stroke-linejoin="round"/>
<path d="M455.584 361.842C455.654 362.74 456.551 363.862 458.721 364.088C463.059 364.462 471.063 361.842 473.904 358.473" stroke="#072C4E" stroke-width="1.32755" stroke-linecap="round" stroke-linejoin="round"/>
<g clip-path="url(#clip0)">
<path d="M338.157 426.508L236.17 398.852L262.662 300.953L364.649 328.61L338.157 426.508Z" fill="#2F97F3"/>
<path d="M273.201 334.532C291.443 338.929 303.68 346.247 322.457 347.121" stroke="#082C4E" stroke-width="1.17958" stroke-linecap="round" stroke-linejoin="round"/>
<path d="M269.025 359.491C277.863 359.088 286.147 363.386 294.037 367.394C296.016 368.399 298.113 369.419 300.329 369.312C301.789 369.243 303.181 368.684 304.626 368.471C309.156 367.801 313.397 370.5 317.495 372.546C321.639 374.615 326.073 376.101 330.627 376.948" stroke="#082C4E" stroke-width="1.17958" stroke-linecap="round" stroke-linejoin="round"/>
<path d="M265.088 380.663C279.391 385.13 293.887 388.978 308.522 392.191" stroke="#082C4E" stroke-width="1.17958" stroke-linecap="round" stroke-linejoin="round"/>
<path d="M393.761 274.869L290.696 298.185L268.362 199.254L371.426 175.938L393.761 274.869Z" fill="#FD6470"/>
<path d="M302.283 239.241C320.884 235.395 339.387 229.495 358.087 226.39" stroke="#082C4E" stroke-width="1.17958" stroke-linecap="round" stroke-linejoin="round"/>
<path d="M308.396 258.387C312.718 256.216 339.091 251.038 343.153 249.644" stroke="#082C4E" stroke-width="1.17958" stroke-linecap="round" stroke-linejoin="round"/>
<path d="M588.533 339.66C588.533 339.66 594.064 303.49 576.622 275.077C559.559 247.29 525.957 235.775 524.491 235.285" stroke="#092C4E" stroke-width="27.1303" stroke-linejoin="round"/>
<path d="M588.533 339.66C588.533 339.66 594.064 303.49 576.622 275.077C559.559 247.29 525.957 235.775 524.491 235.285" stroke="#FFCC00" stroke-width="24.7712"/>
<path d="M459.481 311.626C454.207 317.77 426.033 357.436 406.82 395.901C398.41 412.74 375.323 492.166 373.846 500.178C373.403 502.581 375.114 504.774 377.544 505.005H430.661C432.796 505.206 434.733 503.753 435.136 501.644C435.853 497.886 449.63 427.669 453.892 413.736C464.371 379.467 493.054 333.127 493.714 332.258C493.016 332.957 484.283 364.43 491.524 395.064C498.519 424.657 527.667 483.196 536.895 501.166C538.342 503.984 541.977 504.814 544.502 502.905L582.659 474.077C584.845 472.426 585.339 469.346 583.779 467.095C573.884 452.822 541.11 403.408 536.053 368.124L535.817 366.746C534.569 359.459 534.376 352.035 535.241 344.693C536.859 330.98 540.001 322.292 536.35 311.881" stroke="#082C4E" stroke-width="1.17958" stroke-linecap="round" stroke-linejoin="round"/>
<path d="M567.982 484.654L554.155 494.889L558.777 500.979C556.96 504.552 552.167 513.946 550.207 517.491C548.38 520.79 550.65 524.468 554.074 523.808C555.505 523.533 556.935 522.673 558.04 521.559L575.918 503.528C578.839 500.583 579.774 497.9 576.831 494.977L567.982 484.654Z" fill="#072C4E"/>
<path d="M524.928 276.835H521.677C530.054 273.545 535.99 265.385 535.99 255.831V236.538C535.99 224.079 525.899 213.978 513.452 213.978H483.454C471.007 213.978 460.917 224.079 460.917 236.538V255.831C460.917 265.385 466.853 273.545 475.23 276.835H471.978C462.715 276.835 455.205 284.353 455.205 293.627V298.692C455.205 307.966 462.715 315.483 471.978 315.483H524.928C534.191 315.483 541.701 307.966 541.701 298.692V293.627C541.701 284.353 534.191 276.835 524.928 276.835Z" fill="#FD6470"/>
<path d="M406.733 523.801C464.372 523.102 516.948 525.789 576.503 523.627" stroke="#082C4E" stroke-width="1.17958" stroke-linecap="round" stroke-linejoin="round"/>
<path d="M528.292 182.245C527.626 181.156 526.103 179.948 525.388 179.156C524.883 178.597 524.521 177.935 524.244 177.249C523.846 176.26 523.673 175.184 523.75 174.102C523.805 173.307 523.848 172.545 523.846 172.128C523.823 167.437 520.006 163.653 515.319 163.676C514.067 163.682 512.88 163.962 511.812 164.454C511.422 164.635 510.981 164.67 510.536 164.418C509.954 164.088 509.484 163.35 509.08 163.009C507.993 162.092 506.65 161.452 505.137 161.216C502.791 160.85 500.507 161.566 498.791 162.986C498.202 162.682 497.575 162.431 496.901 162.255C492.514 161.109 489.308 162.848 487.343 164.474C485.521 165.981 483.77 168.429 482.769 171.096C482.1 172.879 480.88 174.389 479.35 175.519C477.007 177.25 475.321 179.882 474.862 183.016C474.019 188.792 477.763 194.32 483.426 195.678C481.902 192.955 481.023 189.82 481.007 186.478C480.997 184.435 481.312 182.466 481.898 180.618C482.675 179.357 483.571 178.46 485.89 177.342C489.8 175.457 494.065 175.432 495.672 171.617C496.048 175.905 498.769 181.023 506.744 184.808C508.109 183.369 510.255 182.905 512.116 183.816C514.464 184.967 515.466 187.866 514.353 190.292C513.971 191.127 513.386 191.791 512.689 192.264C513.999 193.78 515.952 195.117 518.812 195.613C519.636 195.789 520.501 195.856 521.392 195.784C525.954 195.418 529.538 191.59 529.596 187.009C529.618 185.261 529.138 183.629 528.292 182.245Z" fill="#2F97F3"/>
<path d="M481.464 182.219C481.158 183.59 481 185.015 481.008 186.479C481.059 196.993 489.616 205.475 500.12 205.423C507.118 205.389 513.214 201.576 516.489 195.926" stroke="#082C4E" stroke-width="1.17958" stroke-linecap="round" stroke-linejoin="round"/>
<path d="M484.203 190.906C488.893 193.009 493.191 189.348 493.191 189.348" stroke="#082C4E" stroke-width="1.17958" stroke-linecap="round" stroke-linejoin="round"/>
<path d="M487.831 180.47L484.177 185.654L487.966 187.38" stroke="#082C4E" stroke-width="1.17958" stroke-linecap="round" stroke-linejoin="round"/>
<path d="M361.263 317.953C358.386 334.305 342.804 345.222 326.459 342.334C310.116 339.446 299.199 323.847 302.077 307.494C304.954 291.142 320.536 280.226 336.879 283.114C353.223 286.002 364.14 301.6 361.263 317.953Z" fill="white"/>
<path d="M469.364 221.032C450.771 217.747 418.252 259.833 411.008 266.094C386.113 287.608 364.221 284.685 356.412 284.512C352.966 284.435 348.382 285.156 346.834 286.014" stroke="#082C4E" stroke-width="1.17958" stroke-linecap="round" stroke-linejoin="round"/>
<path d="M365.561 296.742C361.677 297.499 343.208 299.898 345.477 304.28C347.307 307.815 359.096 306.917 363.302 304.658C363.302 304.658 366.969 309.406 375.967 307.473" stroke="#082C4E" stroke-width="1.17958" stroke-linecap="round" stroke-linejoin="round"/>
<path d="M359.369 311.185C376.202 313.656 397.647 309.197 411.954 299.993C438.358 283.004 449.824 260.182 461.309 257.419" stroke="#082C4E" stroke-width="1.17958" stroke-linecap="round" stroke-linejoin="round"/>
<path d="M354.955 292.798C356.886 292.407 358.826 292.442 361.363 292.666" stroke="#082C4E" stroke-width="1.17958" stroke-linecap="round" stroke-linejoin="round"/>
<path d="M416.143 505.572H399.133L398.083 510.532C394.27 511.758 384.232 514.971 380.339 516.075C376.713 517.103 375.705 521.306 378.585 523.274C379.789 524.096 381.404 524.506 382.972 524.506H408.352C412.498 524.506 415.058 523.281 415.058 519.131L416.143 505.572Z" fill="#072C4E"/>
<path d="M573.612 338.059C571.908 345.416 563.881 366.565 567.473 367.638C572.27 369.071 576.317 357.534 578.532 352.442" stroke="#082C4E" stroke-width="1.17958" stroke-linecap="round" stroke-linejoin="round"/>
<path d="M577.402 355.319C578.067 361.508 577.445 364.786 578.485 371.244C579.34 376.547 580.726 378.227 581.642 378.229C585.354 378.242 584.709 362.283 584.582 355.879C584.871 361.634 585.565 363.375 585.854 369.13C585.995 371.94 586.814 378.357 588.58 378.771C591.701 379.502 591.398 374.007 591.385 369.85C591.372 365.226 591.367 360.958 590.819 356.367C591.404 362.097 592.702 376.796 593.939 377.315C597.261 378.709 598.343 363.57 597.131 356.655" stroke="#082C4E" stroke-width="1.17958" stroke-linecap="round" stroke-linejoin="round"/>
<path d="M603.604 338.65C603.604 338.65 602.874 353.356 599.678 361.741" stroke="#082C4E" stroke-width="1.17958" stroke-linecap="round" stroke-linejoin="round"/>
<path d="M575.109 335.331L574.391 339.75L602.177 344.094C602.177 344.094 603.37 339.813 602.928 338.275C602.728 338.313 575.109 335.331 575.109 335.331Z" fill="#FFCC00"/>
<path d="M538.029 258.393C538.029 258.393 535.867 256.37 526.604 253.656" stroke="#092C4E" stroke-width="0.884685"/>
<path d="M247.197 236.965C247.197 236.965 221.006 256.009 191.693 255.465C163.025 254.935 138.036 235.797 136.943 234.954" stroke="#092C4E" stroke-width="27.1303" stroke-linejoin="round"/>
<path d="M247.197 236.965C247.197 236.965 221.006 256.009 191.693 255.465C163.025 254.935 138.036 235.797 136.943 234.954" stroke="#FFCC00" stroke-width="24.7712"/>
<path d="M283.444 243.695C266.631 230.839 209.521 167.302 193.003 150.413C190.718 148.076 190.229 144.513 191.822 141.661C193.762 138.19 197.024 134.05 201.992 132.63C204.554 131.897 207.314 132.644 209.201 134.526L301.798 226.824C302.164 227.19 302.461 227.62 302.672 228.092L312.156 249.352C313.23 251.76 310.88 254.275 308.406 253.363L286.06 245.126C285.121 244.78 284.239 244.303 283.444 243.695Z" fill="white"/>
<path d="M309.879 245.562C307.819 245.92 305.189 248.903 304.029 251.092" stroke="#082C4E" stroke-width="1.17958" stroke-linecap="round" stroke-linejoin="round"/>
<path d="M300.19 226.326C292.456 230.585 286.614 236.655 285.023 243.501" stroke="#082C4E" stroke-width="1.17958" stroke-linecap="round" stroke-linejoin="round"/>
<path d="M209.394 136.625C203.496 138.442 197.036 144.305 193.897 149.621" stroke="#082C4E" stroke-width="1.17958" stroke-linecap="round" stroke-linejoin="round"/>
<path d="M227.166 231.104C231.815 228.519 239.705 224.464 240.589 223.623C246.59 217.915 250.224 215.854 253.665 215.732" stroke="#082C4E" stroke-width="1.17958" stroke-linecap="round" stroke-linejoin="round"/>
<path d="M258.232 220.747C257.535 221.533 257.455 223.317 257.713 224.335C257.972 225.354 259.078 227.777 261.555 228.524C264.942 229.546 272.519 226.562 275.445 225.845C278.082 225.199 278.976 225.987 278.684 227.147C278.194 229.085 275.736 233.045 271.125 235.694C262.556 240.617 260.891 246.556 256.351 249.332C254.998 250.159 250.157 253.141 245.309 255.766" stroke="#082C4E" stroke-width="1.17958" stroke-linecap="round" stroke-linejoin="round"/>
<path d="M241.779 224.086L236.477 227.441L251.692 250.319C251.692 250.319 256.026 248.041 258.175 246.332C259.073 245.618 241.779 224.086 241.779 224.086Z" fill="#FFCC00"/>
<path d="M162.237 503.356H177.445V507.623C181.258 508.85 193.486 514.19 197.38 515.293C201.006 516.321 202.014 520.524 199.134 522.492C197.931 523.314 196.314 523.724 194.747 523.724H169.368C165.221 523.724 162.237 522.499 162.237 518.349V503.356Z" fill="#072C4E"/>
<path d="M62.8257 503.356H47.6169V507.623C43.804 508.85 31.576 514.19 27.6824 515.293C24.0568 516.321 23.0489 520.524 25.928 522.492C27.132 523.314 28.7479 523.724 30.3164 523.724H55.6954C59.8415 523.724 62.8257 522.499 62.8257 518.349V503.356Z" fill="#072C4E"/>
<path d="M74.1714 297.289C64.7403 326.663 25.7094 464.738 23.6591 496.286C23.4168 500.021 26.3772 503.179 30.1155 503.179H70.8479C74.4965 503.179 76.7735 500.123 77.3151 496.51C81.8563 466.189 103.864 350.092 109.453 322.817C109.453 322.817 134.257 394.711 148.808 497.478C149.246 500.573 151.965 502.83 155.088 502.823C163.535 502.802 179.868 502.768 189.499 502.781C193.467 502.787 196.464 499.189 195.748 495.281C190.448 466.348 171.523 357.807 134.612 288.012" stroke="#082C4E" stroke-width="1.17958" stroke-linecap="round" stroke-linejoin="round"/>
<path d="M136.913 268.391H136.518C138.754 266.414 140.49 262.801 141.172 258.279L145.988 226.403C146.513 222.932 145.05 219.518 143.04 219.518H67.0513C65.0417 219.518 63.5791 222.932 64.1044 226.403L68.9184 258.279C69.6018 262.801 71.3372 266.414 73.5728 268.391H73.1792C66.2206 268.391 60.5793 274.037 60.5793 281.002V284.808C60.5793 291.773 66.2206 297.42 73.1792 297.42H136.913C143.871 297.42 149.512 291.773 149.512 284.808V281.002C149.512 274.037 143.871 268.391 136.913 268.391Z" fill="#2F97F3"/>
<path d="M33.2598 523.624C33.4913 524.077 193.707 525.741 232.327 522.125" stroke="#082C4E" stroke-width="1.17958" stroke-linecap="round" stroke-linejoin="round"/>
<path d="M109.153 193.63C109.153 193.63 114.283 198.064 120.933 195.726" stroke="#082C4E" stroke-width="1.17958" stroke-linecap="round" stroke-linejoin="round"/>
<path d="M117.951 185.578L120.561 191.169L117.598 192.323" stroke="#082C4E" stroke-width="1.17958" stroke-linecap="round" stroke-linejoin="round"/>
<path d="M118.322 184.82C118.201 187.125 119.97 189.091 122.271 189.212C124.574 189.333 126.537 187.563 126.659 185.259C126.78 182.954 125.011 180.987 122.709 180.867C120.407 180.746 118.443 182.515 118.322 184.82Z" stroke="#082C4E" stroke-width="1.17958" stroke-linecap="round" stroke-linejoin="round"/>
<path d="M107.855 184.741C107.734 187.046 109.502 189.012 111.804 189.133C114.106 189.254 116.07 187.484 116.191 185.18C116.313 182.875 114.544 180.909 112.243 180.788C109.94 180.667 107.976 182.437 107.855 184.741Z" stroke="#082C4E" stroke-width="1.17958" stroke-linecap="round" stroke-linejoin="round"/>
<path d="M117.967 185.273L116.192 185.179L117.967 185.273Z" fill="#2F97F3"/>
<path d="M117.967 185.273L116.192 185.179" stroke="#082C4E" stroke-width="1.17958" stroke-linecap="round" stroke-linejoin="round"/>
<path d="M87.315 196.675C90.2293 203.049 96.4957 207.624 103.973 208.017C114.689 208.58 123.833 200.342 124.396 189.614" stroke="#082C4E" stroke-width="1.17958" stroke-linecap="round" stroke-linejoin="round"/>
<path d="M117.881 173.958C116.489 172.715 114.869 171.341 112.368 170.418C110.43 169.702 108.182 169.238 106.014 169.124C102.778 168.954 99.6869 169.589 96.9294 170.848C96.573 166.942 93.2956 163.883 89.3022 163.883C85.0692 163.883 81.6384 167.318 81.6384 171.555C81.6384 175.338 84.3776 178.474 87.9774 179.103C86.5725 181.623 85.7045 184.494 85.5436 187.57C85.3957 190.383 85.8517 193.086 86.7972 195.557C86.8128 195.558 86.8284 195.56 86.8447 195.561C87.5003 195.596 89.4576 195.115 92.034 193.945C91.1062 193.022 90.5558 191.726 90.6297 190.315C90.7675 187.686 93.0092 185.666 95.6365 185.804C97.6481 185.91 99.298 187.252 99.9007 189.055C104.232 185.556 108.601 180.449 111.246 173.251C115.742 173.762 119.147 176.035 121.08 177.827C121.08 177.827 120.105 175.947 117.881 173.958Z" fill="#FD6470"/>
<path d="M325.934 522.046H259.161C254.117 522.046 250.027 517.953 250.027 512.903V456.991C250.027 451.941 254.598 447.847 259.642 447.847H326.414C331.458 447.847 335.067 451.941 335.067 456.991V512.903C335.067 517.953 330.978 522.046 325.934 522.046Z" fill="white"/>
<path d="M322.362 484.947C322.362 501.431 309.013 514.792 292.547 514.792C276.082 514.792 262.733 501.431 262.733 484.947C262.733 468.464 276.082 455.102 292.547 455.102C309.013 455.102 322.362 468.464 322.362 484.947Z" fill="#FD6470"/>
<path d="M293.469 455.125C293.162 455.116 292.857 455.103 292.547 455.103C276.082 455.103 262.733 468.464 262.733 484.948C262.733 501.431 276.082 514.792 292.547 514.792C308.95 514.792 322.254 501.533 322.356 485.137H293.568C293.568 485.226 293.509 467.187 293.469 455.125Z" fill="white"/>
<path d="M293.469 455.125C293.162 455.116 292.857 455.103 292.547 455.103C276.082 455.103 262.733 468.464 262.733 484.948C262.733 501.431 276.082 514.792 292.547 514.792C308.95 514.792 322.254 501.533 322.356 485.137" stroke="#082C4E" stroke-width="1.17958" stroke-linecap="round" stroke-linejoin="round"/>
<path d="M56.6503 322.694C58.8277 321.626 66.9815 324.076 67.6461 321.581C68.2459 319.327 63.7963 317.689 57.5135 315.292C53.9451 313.932 52.4189 311.743 50.3466 309.013C45.5963 302.757 42.3322 294.126 41.6545 285.779C39.1817 255.32 59.887 246.821 75.558 244.693" stroke="#082C4E" stroke-width="1.11506" stroke-linecap="round" stroke-linejoin="round"/>
<path d="M61.6375 347.436C59.8653 349.717 53.5429 345.89 51.9385 344.86C43.2536 339.287 27.7333 324.077 18.5422 298.201C8.73105 270.583 28.6718 223.731 74.12 220.634" stroke="#082C4E" stroke-width="1.11506" stroke-linecap="round" stroke-linejoin="round"/>
<path d="M57.6244 322.469C63.1721 327.499 73.274 331.727 78.3076 336.266C79.2364 337.103 79.0269 338.628 77.9356 338.959C76.4338 339.414 74.4237 338.921 72.7843 338.261C68.1223 336.38 63.5756 334.084 59.2098 331.405C62.3908 334.177 66.097 335.799 74.1829 341.038C75.9901 342.21 74.5253 343.897 72.8156 343.837C69.09 343.706 61.364 339.722 57.1661 337.229C61.5387 340.754 70.2464 343.937 70.4042 346.269C70.6766 350.282 58.6919 345.319 53.8834 341.87" stroke="#082C4E" stroke-width="1.11506" stroke-linecap="round" stroke-linejoin="round"/>
</g>
<defs>
<clipPath id="clip0">
<rect width="626" height="599" fill="white" transform="translate(1)"/>
</clipPath>
</defs>
</svg>
